<?xml version="1.0" encoding="UTF-8"?>
<svg id="Camada_1" xmlns="http://www.w3.org/2000/svg" viewBox="0 0 1080 901.04">
  <defs>
    <style>
      .cls-1 {
        fill: #fff;
      }

      .cls-2 {
        fill: #0175a6;
      }
    </style>
  </defs>
  <path class="cls-1" d="M159.62,896.15c-30.7,0-60.92-9.32-87.45-27.59-42.69-29.38-67.16-75.96-67.16-127.78V160.26c0-51.82,24.48-98.39,67.16-127.77C114.84,3.1,167.07-3.15,215.49,15.35l759.75,290.26c61.54,23.51,99.76,79.04,99.76,144.91s-38.23,121.4-99.76,144.91L215.49,885.69c-18.32,7-37.18,10.46-55.87,10.46Z"/>
  <path class="cls-1" d="M159.66,16.09c-28.49,0-56.53,8.65-81.15,25.6-39.6,27.27-62.32,70.48-62.32,118.57v580.52c0,48.08,22.72,91.3,62.32,118.57,39.6,27.26,88.08,33.05,132.99,15.9l759.75-290.26c57.1-21.81,92.57-73.34,92.57-134.47s-35.48-112.65-92.57-134.47L211.5,25.79c-17-6.49-34.5-9.7-51.84-9.7Z"/>
  <path class="cls-2" d="M456.31,345.08c-3-2.13-6.42-3.18-10.28-3.18-4.06,0-7.68,1.06-10.87,3.18-3.18,2.12-5.55,5.02-7.09,8.69l-87.77,205.37h43.16l62.12-144.95,61.85,144.95h42.87l-87.19-205.37c-1.55-3.66-3.82-6.56-6.81-8.69Z"/>
  <path class="cls-2" d="M615.02,489.55l-63.27-147.37h-42l87.77,205.08c1.54,3.47,3.9,6.28,7.09,8.4,3.18,2.12,6.8,3.19,10.86,3.19s7.29-1.07,10.29-3.19c2.99-2.12,5.25-4.92,6.8-8.4l87.19-205.08h-42l-62.73,147.37Z"/>
  <rect class="cls-2" x="746.6" y="343.35" width="38.53" height="214.35"/>
  <path class="cls-2" d="M282.65,477.16c11.1-5.98,19.89-14.29,26.36-24.9,6.47-10.62,9.7-22.5,9.7-35.63s-3.24-25.34-9.7-36.64c-6.47-11.3-15.3-20.23-26.5-26.79-11.2-6.56-23.37-9.85-36.5-9.85h-87.19c-5.41,0-10.09,1.98-14.04,5.94-3.96,3.96-5.94,8.64-5.94,14.05v194.36h38.52v-175.82h68.65c6.18,0,11.88,1.59,17.09,4.78,5.21,3.19,9.37,7.44,12.46,12.75,3.09,5.31,4.63,11.05,4.63,17.23s-1.54,11.84-4.63,16.94c-3.09,5.12-7.2,9.18-12.31,12.17-5.12,3-10.86,4.49-17.24,4.49h-45.43l74.98,107.46h44.6l-52.59-74.54c5.22-1.47,10.28-3.39,15.08-5.98Z"/>
</svg>